<svg xmlns="http://www.w3.org/2000/svg" viewBox="0 0 360 360" role="img" aria-label="Saving bear mascot">
  <defs>
    <linearGradient id="g" x1="0" x2="1" y1="0" y2="1">
      <stop stop-color="#8CC8FF"/>
      <stop offset="1" stop-color="#9B8CFF"/>
    </linearGradient>
    <filter id="s" x="-20%" y="-20%" width="140%" height="140%">
      <feDropShadow dx="0" dy="18" stdDeviation="16" flood-color="#435e83" flood-opacity=".18"/>
    </filter>
  </defs>
  <circle cx="180" cy="186" r="144" fill="#F8F6F2"/>
  <circle cx="94" cy="98" r="42" fill="#FFC6C6"/>
  <circle cx="266" cy="98" r="42" fill="#FFC6C6"/>
  <circle cx="94" cy="98" r="25" fill="#F8F6F2"/>
  <circle cx="266" cy="98" r="25" fill="#F8F6F2"/>
  <rect x="58" y="80" width="244" height="224" rx="90" fill="url(#g)" filter="url(#s)"/>
  <path d="M95 210c34 54 136 54 170 0" fill="#A6D672"/>
  <circle cx="132" cy="168" r="16" fill="#1B1B1B"/>
  <circle cx="228" cy="168" r="16" fill="#1B1B1B"/>
  <circle cx="138" cy="162" r="5" fill="#fff"/>
  <circle cx="234" cy="162" r="5" fill="#fff"/>
  <path d="M166 190c8 12 20 12 28 0" fill="none" stroke="#1B1B1B" stroke-width="10" stroke-linecap="round"/>
  <rect x="111" y="229" width="138" height="72" rx="28" fill="#1B1B1B"/>
  <rect x="129" y="245" width="102" height="24" rx="12" fill="#8CC8FF"/>
  <circle cx="244" cy="266" r="13" fill="#FFC6C6"/>
  <path d="M180 55v40M158 75h44" stroke="#A6D672" stroke-width="14" stroke-linecap="round"/>
</svg>
